<?xml version="1.0" encoding="UTF-8" standalone="no"?>
<!-- Created with Inkscape (http://www.inkscape.org/) -->

<svg
   width="180"
   height="180"
   viewBox="0 0 180 180"
   version="1.1"
   id="svg1"
   inkscape:version="1.3.2 (091e20ef0f, 2023-11-25, custom)"
   sodipodi:docname="mednote.svg"
   xmlns:inkscape="http://www.inkscape.org/namespaces/inkscape"
   xmlns:sodipodi="http://sodipodi.sourceforge.net/DTD/sodipodi-0.dtd"
   xmlns="http://www.w3.org/2000/svg"
   xmlns:svg="http://www.w3.org/2000/svg">
  <sodipodi:namedview
     id="namedview1"
     pagecolor="#505050"
     bordercolor="#eeeeee"
     borderopacity="1"
     inkscape:showpageshadow="0"
     inkscape:pageopacity="0"
     inkscape:pagecheckerboard="0"
     inkscape:deskcolor="#d1d1d1"
     inkscape:document-units="px"
     inkscape:zoom="5.1972222"
     inkscape:cx="63.784073"
     inkscape:cy="69.941208"
     inkscape:window-width="3820"
     inkscape:window-height="2117"
     inkscape:window-x="10"
     inkscape:window-y="33"
     inkscape:window-maximized="1"
     inkscape:current-layer="layer1" />
  <defs
     id="defs1" />
  <g
     inkscape:label="Layer 1"
     inkscape:groupmode="layer"
     id="layer1">
    <g
       id="g2"
       transform="matrix(1.8342794,0,0,1.8342794,-102.67194,-185.1763)">
      <path
         d="m 79.639583,121.44375 c 1.397,0 2.794,0 4.233333,0 0,1.74625 0,3.4925 0,5.29167 13.97,0 27.940004,0 42.333334,0 0,-1.74625 0,-3.4925 0,-5.29167 1.397,0 2.794,0 4.23333,0 0,21.82812 0,43.65625 0,66.14583 -16.764,0 -33.527997,0 -50.799997,0 0,-21.82812 0,-43.65625 0,-66.14583 z"
         fill="#f7f7f7"
         id="path2"
         style="stroke-width:0.264583" />
      <path
         d="m 71.172916,112.44792 c 4.191,0 8.382,0 12.7,0 0,1.57162 0,3.14325 0,4.7625 -2.794,0 -5.588,0 -8.466667,0 0,24.62212 0,49.24425 0,74.6125 19.558,0 39.116001,0 59.266671,0 0,-24.62213 0,-49.24425 0,-74.6125 -2.794,0 -5.588,0 -8.46667,0 0,-1.57163 0,-3.14325 0,-4.7625 4.191,0 8.382,0 12.7,0 0,27.76537 0,55.53075 0,84.1375 -22.352,0 -44.704001,0 -67.733334,0 0,-27.76538 0,-55.53075 0,-84.1375 z"
         fill="#264462"
         id="path3"
         style="stroke-width:0.264583" />
      <path
         d="m 96.308333,103.45208 c 5.762627,0 11.525247,0 17.462497,0 0,2.27012 0,4.54025 0,6.87917 2.70669,0 5.41338,0 8.20209,0 0,4.01637 0,8.03275 0,12.17083 -11.176,0 -22.352004,0 -33.86667,0 0,-4.01638 0,-8.03275 0,-12.17083 2.706687,0 5.413375,0 8.202083,0 0,-2.27013 0,-4.54025 0,-6.87917 z"
         fill="#950f16"
         id="path5"
         style="stroke-width:0.264583" />
      <path
         d="m 96.308333,103.45208 c 5.762627,0 11.525247,0 17.462497,0 0,2.27012 0,4.54025 0,6.87917 2.70669,0 5.41338,0 8.20209,0 0,1.30968 0,2.61937 0,3.96875 -0.72696,0.18491 -1.4545,0.36629 -2.18282,0.5457 -0.20566,0.0527 -0.41132,0.10539 -0.62321,0.15968 -0.29929,0.0729 -0.29929,0.0729 -0.60462,0.14728 -0.27434,0.0686 -0.27434,0.0686 -0.55423,0.13856 -0.61419,0.0773 -1.01059,0.0122 -1.59137,-0.19747 -0.56638,-0.54674 -0.56638,-0.54674 -1.12448,-1.20716 -0.18691,-0.21863 -0.37381,-0.43725 -0.56638,-0.6625 -0.21077,-0.25324 -0.21077,-0.25324 -0.42581,-0.51159 -0.14734,0.10232 -0.29468,0.20464 -0.44648,0.31006 -3.54563,2.41965 -6.86912,3.50794 -11.19519,3.12952 -2.3181,-0.46033 -4.165592,-1.57346 -6.085414,-2.91042 -0.261937,-0.17462 -0.523875,-0.34925 -0.79375,-0.52916 -0.09311,0.13369 -0.186221,0.26739 -0.282153,0.40514 -0.130628,0.1719 -0.261255,0.34379 -0.395841,0.5209 -0.125853,0.17189 -0.251706,0.34379 -0.381372,0.5209 -0.811675,0.62265 -1.377202,0.51202 -2.380217,0.40514 -0.766404,-0.21392 -1.495718,-0.49449 -2.232422,-0.79375 -0.290331,-0.11357 -0.290331,-0.11357 -0.586527,-0.22944 -0.472563,-0.18532 -0.943637,-0.37443 -1.414384,-0.56431 0,-0.87313 0,-1.74625 0,-2.64583 2.706687,0 5.413375,0 8.202083,0 0,-2.27013 0,-4.54025 0,-6.87917 z"
         fill="#e91722"
         id="path6"
         style="stroke-width:0.264583" />
      <path
         d="m 95.069189,180.65119 c 0.177766,-6.9e-4 0.355531,-0.002 0.538691,-0.003 0.586905,-0.002 1.173563,0.002 1.760455,0.007 0.408199,3.1e-4 0.816405,3e-4 1.224604,-2e-5 0.855241,3e-4 1.710391,0.003 2.565611,0.009 1.09615,0.007 2.19219,0.008 3.28837,0.007 0.84283,-5.6e-4 1.68563,0.001 2.52845,0.005 0.40417,10e-4 0.80834,0.002 1.21252,10e-4 0.5649,3.2e-4 1.12966,0.004 1.69454,0.009 0.167,-5.3e-4 0.334,-0.001 0.50606,-0.001 0.87079,0.0116 1.47477,0.0481 2.17728,0.62336 0.25536,0.51071 0.22706,0.88866 0.1818,1.45441 -0.32357,0.57011 -0.4587,0.6983 -1.09081,0.909 -0.25172,0.0179 -0.5042,0.026 -0.75655,0.028 -0.15394,0.001 -0.30788,0.003 -0.46648,0.005 -0.16831,6.8e-4 -0.33661,0.001 -0.51002,0.002 -0.17772,0.001 -0.35543,0.003 -0.53853,0.005 -0.58879,0.005 -1.17758,0.007 -1.76639,0.0102 -0.30141,0.001 -0.30141,0.001 -0.60892,0.003 -1.06312,0.005 -2.12625,0.008 -3.18938,0.011 -1.09903,0.003 -2.19796,0.0112 -3.29695,0.0204 -0.844377,0.006 -1.688734,0.008 -2.533139,0.009 -0.405189,0.001 -0.810385,0.004 -1.215561,0.008 -0.566704,0.005 -1.133147,0.005 -1.699879,0.004 -0.167575,0.003 -0.335147,0.006 -0.507797,0.009 -0.816944,-0.008 -1.163206,-0.0317 -1.830969,-0.54216 -0.350348,-0.48196 -0.350348,-0.48196 -0.463974,-1.02736 0.321353,-1.5425 1.476287,-1.58533 2.796968,-1.56627 z"
         fill="#010101"
         id="path7"
         style="stroke-width:0.181801" />
      <path
         d="m 95.718231,173.37914 c 0.219017,-6.9e-4 0.438033,-0.002 0.663695,-0.003 0.723098,-0.002 1.445891,0.002 2.168972,0.007 0.502923,3.2e-4 1.005854,3.1e-4 1.508772,-2e-5 1.05371,3e-4 2.10729,0.003 3.16097,0.009 1.35051,0.007 2.70089,0.008 4.05144,0.007 1.03841,-5.7e-4 2.07679,10e-4 3.11518,0.005 0.49796,0.001 0.99592,0.002 1.49389,0.001 0.69599,3.3e-4 1.3918,0.004 2.08776,0.009 0.20576,-5.4e-4 0.41151,-0.001 0.6235,-0.001 1.07285,0.0116 1.81699,0.0481 2.68252,0.62335 0.31462,0.51071 0.27975,0.88867 0.22399,1.45441 -0.39866,0.57012 -0.56515,0.69831 -1.34394,0.90901 -0.31013,0.0179 -0.6212,0.026 -0.93211,0.028 -0.18966,0.001 -0.37932,0.003 -0.57473,0.005 -0.20736,6.9e-4 -0.41472,0.001 -0.62837,0.002 -0.21896,0.001 -0.43791,0.003 -0.66349,0.005 -0.72542,0.005 -1.45084,0.007 -2.17629,0.0102 -0.37135,0.001 -0.37135,0.001 -0.75022,0.003 -1.30982,0.005 -2.61965,0.008 -3.92948,0.011 -1.35406,0.003 -2.708,0.0112 -4.06202,0.0204 -1.04031,0.006 -2.0806,0.008 -3.120954,0.009 -0.499214,0.001 -0.998436,0.004 -1.497634,0.008 -0.698209,0.006 -1.396096,0.006 -2.09434,0.004 -0.206461,0.003 -0.412918,0.006 -0.625632,0.009 -1.006517,-0.008 -1.43313,-0.0318 -2.255849,-0.54216 -0.431647,-0.48196 -0.431647,-0.48196 -0.57164,-1.02737 0.395924,-1.54249 1.818862,-1.58533 3.44601,-1.56626 z"
         fill="#010101"
         id="path8"
         style="stroke-width:0.201795" />
      <path
         d="m 96.605507,166.1071 c 0.27541,-6.9e-4 0.550818,-0.002 0.834584,-0.003 0.90928,-0.002 1.818177,0.002 2.727439,0.007 0.63241,3.2e-4 1.26484,3e-4 1.89725,-2e-5 1.32501,3e-4 2.64988,0.003 3.97485,0.009 1.69825,0.007 3.39632,0.008 5.09461,0.007 1.30578,-5.6e-4 2.61151,0.001 3.91727,0.005 0.62618,0.001 1.25235,0.002 1.87854,0.001 0.87519,3.3e-4 1.75016,0.004 2.62531,0.009 0.25873,-5.4e-4 0.51746,-0.001 0.78403,-0.001 1.3491,0.0116 2.28483,0.0481 3.37322,0.62336 0.39562,0.51071 0.35178,0.88866 0.28166,1.45441 -0.5013,0.57011 -0.71066,0.6983 -1.68997,0.909 -0.38999,0.0179 -0.78115,0.026 -1.17211,0.028 -0.2385,0.001 -0.47699,0.003 -0.72271,0.005 -0.26076,6.9e-4 -0.5215,10e-4 -0.79016,0.002 -0.27534,0.001 -0.55066,0.003 -0.83433,0.005 -0.91221,0.005 -1.82441,0.007 -2.73664,0.0102 -0.46697,10e-4 -0.46697,10e-4 -0.94338,0.003 -1.64708,0.005 -3.29416,0.008 -4.94125,0.011 -1.7027,0.003 -3.40525,0.0112 -5.1079,0.0204 -1.30817,0.006 -2.61632,0.008 -3.92454,0.009 -0.62775,0.001 -1.255511,0.004 -1.883242,0.008 -0.877983,0.005 -1.755562,0.005 -2.633588,0.004 -0.259621,0.003 -0.519237,0.006 -0.78672,0.009 -1.265675,-0.008 -1.802132,-0.0317 -2.836683,-0.54216 -0.542788,-0.48196 -0.542788,-0.48196 -0.718826,-1.02736 0.497866,-1.5425 2.287182,-1.58533 4.333286,-1.56626 z"
         fill="#010101"
         id="path9"
         style="stroke-width:0.226288" />
      <path
         d="m 95.779166,112.44792 c 0.141201,0.0992 0.282401,0.1985 0.427881,0.30076 3.483061,2.39234 6.964783,3.81222 11.249833,3.0365 2.17952,-0.5044 4.04987,-1.29604 5.80649,-2.71404 0.50746,-0.35864 0.50746,-0.35864 1.30121,-0.35864 0.59842,0.57878 0.59842,0.57878 1.24024,1.32292 0.32077,0.36835 0.32077,0.36835 0.64802,0.74414 0.16269,0.191 0.32537,0.38199 0.49299,0.57878 -0.52209,1.56626 -2.33343,2.32864 -3.7207,3.09128 -4.29876,2.1125 -9.03726,2.72501 -13.598072,1.17551 -2.480568,-0.90152 -4.471941,-2.04304 -6.493725,-3.73763 0.400985,-0.92015 0.946506,-1.5758 1.620573,-2.3151 0.191678,-0.21146 0.383356,-0.42292 0.580843,-0.64079 0.219986,-0.23943 0.219986,-0.23943 0.444417,-0.48369 z"
         fill="#030000"
         id="path10"
         style="stroke-width:0.264583" />
      <path
         d="m 85.997812,129.24806 c 1.285382,0 2.570763,0 3.895093,0 0,1.28538 0,2.57076 0,3.8951 1.285381,0 2.570764,0 3.895101,0 0,1.28538 0,2.57076 0,3.8951 -1.285381,0 -2.570762,0 -3.895101,0 0,1.28538 0,2.57076 0,3.89509 -1.285382,0 -2.570763,0 -3.895093,0 0,-1.28538 0,-2.57076 0,-3.89509 -1.285381,0 -2.570763,0 -3.895095,0 0,-1.28539 0,-2.57077 0,-3.8951 1.285384,0 2.570766,0 3.895095,0 0,-1.28538 0,-2.57077 0,-3.8951 z"
         fill="#000000"
         id="path11"
         style="stroke-width:0.243443" />
      <path
         d="m 86.477306,173.40009 c 0.170374,-4.7e-4 0.340749,-6.9e-4 0.516286,-0.001 0.902558,0.0128 1.579789,0.0342 2.301632,0.63772 0.255353,0.51071 0.22706,0.88867 0.181801,1.45441 -0.323578,0.57012 -0.458699,0.69831 -1.090807,0.90901 -0.627777,0.0553 -1.256259,0.0588 -1.886187,0.0682 -0.172015,0.007 -0.344031,0.0136 -0.521258,0.0206 -0.859311,0.0109 -1.272752,0.0141 -1.978508,-0.51345 -0.340878,-0.48433 -0.340878,-0.48433 -0.454503,-1.02973 0.333733,-1.60192 1.571848,-1.58645 2.931544,-1.54531 z"
         fill="#030303"
         id="path56"
         style="stroke-width:0.181801" />
      <path
         d="m 86.477306,166.12804 c 0.170374,-4.7e-4 0.340749,-6.9e-4 0.516286,-0.001 0.902558,0.0128 1.579789,0.0342 2.301632,0.63772 0.255353,0.51071 0.22706,0.88866 0.181801,1.45441 -0.323578,0.57012 -0.458699,0.69831 -1.090807,0.909 -0.627777,0.0553 -1.256259,0.0588 -1.886187,0.0682 -0.172015,0.007 -0.344031,0.0136 -0.521258,0.0206 -0.859311,0.0109 -1.272752,0.0141 -1.978508,-0.51345 -0.340878,-0.48433 -0.340878,-0.48433 -0.454503,-1.02973 0.333733,-1.60192 1.571848,-1.58646 2.931544,-1.54531 z"
         fill="#030303"
         id="path57"
         style="stroke-width:0.181801" />
      <path
         d="m 86.477306,180.67214 c 0.170374,-4.7e-4 0.340749,-6.9e-4 0.516286,-0.001 1.603704,0.0228 1.603704,0.0228 2.301632,0.63773 0.213036,0.71899 0.255396,1.10334 -0.04545,1.79528 -0.318152,0.38633 -0.318152,0.38633 -0.863555,0.56813 -0.631727,0.0462 -1.264311,0.042 -1.89755,0.0454 -0.260307,0.006 -0.260307,0.006 -0.525873,0.0113 -0.167446,6.8e-4 -0.334891,0.002 -0.507411,0.003 -0.152666,0.001 -0.305332,0.003 -0.462625,0.005 -0.519862,-0.0794 -0.766899,-0.25816 -1.15157,-0.61021 -0.142742,-0.33945 -0.142742,-0.33945 -0.193164,-0.70448 -0.02086,-0.11952 -0.04171,-0.23903 -0.0632,-0.36218 0.289943,-1.5077 1.675565,-1.42447 2.892485,-1.38765 z"
         fill="#020202"
         id="path58"
         style="stroke-width:0.181801" />
      <g
         id="g132"
         transform="matrix(0.046762,0,0,0.046762,83.060089,124.58283)"
         style="fill:#950f16;fill-opacity:1">
        <path
           d="m 0,0 c 0.72574219,0.61359375 1.4514844,1.2271875 2.1992188,1.859375 8.6790992,7.3939586 16.5393372,15.489251 23.6289062,24.414062 1.417666,1.779732 2.864725,3.536549 4.34375,5.265625 37.645678,44.186949 53.911992,102.242718 54.005127,159.292968 0.0063,1.72382 0.01293,3.44763 0.01991,5.17145 0.0208,5.603 0.03138,11.20599 0.04137,16.80902 0.0041,1.95075 0.0082,3.90151 0.01235,5.85226 0.019,9.17944 0.03324,18.35887 0.04161,27.53832 0.0097,10.49299 0.03598,20.98577 0.0765,31.47868 0.03047,8.1774 0.045,16.35474 0.04828,24.5322 0.0023,4.85225 0.01083,9.70427 0.03646,14.55646 0.137155,27.3761 0.182136,55.62052 -7.81579,82.08651 -0.794264,2.66924 -1.530276,5.35289 -2.270508,8.0376 -0.599939,2.13978 -1.201504,4.2791 -1.804687,6.41797 -0.276262,0.99129 -0.552524,1.98258 -0.837158,3.00391 C 69.729781,423.20503 67.089319,429.53672 64,436 c -0.826013,1.81168 -1.650225,3.62419 -2.472656,5.4375 C 52.729536,460.47202 42.010322,477.57341 29,494 c -0.430708,0.54785 -0.861416,1.0957 -1.305176,1.66016 -11.568911,14.58318 -24.9591441,28.07305 -39.983887,39.07763 -1.767326,1.30381 -3.505328,2.6408 -5.242187,3.98487 C -27.157397,546.09176 -37.31941,552.27985 -48,558 c -0.844658,0.45375 -1.689316,0.9075 -2.55957,1.375 C -62.643846,565.7547 -75.068105,570.66806 -88,575 c -0.686204,0.23179 -1.372408,0.46358 -2.079407,0.70239 -9.537892,3.19617 -19.010733,5.5463 -28.920593,7.29761 -0.0458,0.79326 -0.0915,1.58651 -0.13867,2.40381 -0.61637,9.87049 -0.61637,9.87049 -3.86133,13.59619 -3.61905,2.44055 -7.30574,2.29594 -11.51904,2.29053 -1.12759,0.0101 -1.12759,0.0101 -2.27796,0.0204 -2.48179,0.019 -4.96332,0.0229 -7.44519,0.0251 -1.72869,0.006 -3.45738,0.0131 -5.18606,0.0202 -3.62307,0.012 -7.24603,0.0157 -10.86911,0.0145 -4.63602,-2.1e-4 -9.27142,0.0271 -13.90729,0.0615 -3.57058,0.0223 -7.141,0.0263 -10.71164,0.0252 -1.70879,0.002 -3.41759,0.0112 -5.12631,0.0267 -2.39362,0.0197 -4.78592,0.0138 -7.17957,0.002 -0.7015,0.0112 -1.403,0.0225 -2.12576,0.0341 -4.97348,-0.0633 -7.85724,-1.3426 -11.65207,-4.5199 -1.25192,-3.75576 -1.20111,-7.29559 -1.23828,-11.21094 -0.0121,-1.20772 -0.0121,-1.20772 -0.0245,-2.43985 -0.0138,-1.70297 -0.0246,-3.40597 -0.0324,-5.10898 -0.0172,-2.59884 -0.0611,-5.19641 -0.10522,-7.79492 -0.0101,-1.65624 -0.0186,-3.31249 -0.0254,-4.96875 -0.0175,-0.77411 -0.035,-1.54822 -0.0531,-2.34579 0.0151,-3.76002 0.33167,-5.90112 2.38045,-9.09806 3.62586,-3.51237 6.69154,-3.18642 11.49805,-3.19384 0.76279,-0.005 1.52558,-0.01 2.31149,-0.0151 2.52989,-0.0146 5.05971,-0.0214 7.58963,-0.0269 1.75636,-0.006 3.51273,-0.0115 5.26909,-0.0173 3.68627,-0.0105 7.37251,-0.0163 11.05879,-0.0198 4.72124,-0.005 9.44219,-0.0295 14.16334,-0.058 3.62972,-0.0186 7.25936,-0.0238 10.88911,-0.0254 1.74032,-0.003 3.48063,-0.011 5.22089,-0.0242 2.43694,-0.0171 4.87318,-0.0152 7.31016,-0.009 1.07638,-0.0138 1.07638,-0.0138 2.17451,-0.0279 4.38115,0.0365 7.14075,0.68001 10.61333,3.38437 2.42945,3.64418 2.1618,5.71241 2,10 34.797124,-9.72568 67.393575,-22.40333 96,-45 1.349648,-1.05961 1.349648,-1.05961 2.726563,-2.14063 C 12.628826,489.69848 38.304321,453.29774 52,412 c 0.273281,-0.78375 0.546562,-1.5675 0.828125,-2.375 C 56.745716,398.28899 59.643108,386.74875 62,375 c -0.558728,0.021 -1.117456,0.0419 -1.693115,0.0635 -2.581272,0.0842 -5.162253,0.1355 -7.744385,0.18652 -1.317744,0.0503 -1.317744,0.0503 -2.662109,0.10156 -8.776404,0.12954 -15.87633,-2.64015 -22.396485,-8.57031 -4.758997,-5.63663 -6.624325,-12.87651 -6.651077,-20.07974 -0.0037,-0.64142 -0.0074,-1.28283 -0.01114,-1.94368 -0.01103,-2.15317 -0.01488,-4.3063 -0.01869,-6.45949 -0.0063,-1.54247 -0.01291,-3.08494 -0.01991,-4.62741 -0.02104,-5.06999 -0.0314,-10.13997 -0.04137,-15.20999 -0.004,-1.74663 -0.0082,-3.49326 -0.01235,-5.23988 -0.01905,-8.20821 -0.03328,-16.4164 -0.04161,-24.62462 -0.0098,-9.46667 -0.03607,-18.93311 -0.0765,-28.39969 -0.0302,-7.32159 -0.04497,-14.64311 -0.04828,-21.96476 -0.0023,-4.37049 -0.01126,-8.74073 -0.03646,-13.11116 -0.02335,-4.11556 -0.02749,-8.2307 -0.01724,-12.34631 4.94e-4,-1.50559 -0.0058,-3.0112 -0.01956,-4.51673 -0.08646,-10.01739 1.035325,-17.12471 6.67778,-25.50779 5.232921,-5.11663 10.295249,-8.02588 17.722656,-8.23828 2.051357,0.0328 4.102449,0.0917 6.152344,0.17578 1.056387,0.0226 2.112773,0.0451 3.201172,0.0684 C 56.843974,174.81424 59.4212,174.89605 62,175 55.677492,141.34668 44.039517,109.01299 24,81 23.242031,79.931367 22.484062,78.862734 21.703125,77.761719 19.528211,74.788565 17.291055,71.88445 15,69 13.826309,67.518867 13.826309,67.518867 12.628906,66.007812 0.81885101,51.443072 -12.671649,37.843479 -28,27 -29.019971,26.278044 -29.019971,26.278044 -30.060547,25.541504 -48.327533,12.752152 -67.217838,3.0712494 -88,-5 -88.898396,-5.3528003 -89.796792,-5.7056006 -90.722412,-6.0690918 -124.44069,-18.879543 -166.37152,-22.301479 -202,-16 c -0.88172,0.150659 -1.76344,0.301318 -2.67187,0.456543 C -245.24597,-8.4087213 -283.7663,8.9830912 -315,36 c -0.76957,0.658711 -1.53914,1.317422 -2.33203,1.996094 C -331.10659,50.080246 -343.45733,62.999899 -354,78 c -0.47244,0.670796 -0.94488,1.341592 -1.43164,2.032715 C -366.74233,96.314566 -376.45885,114.26582 -383,133 c -0.24412,0.69416 -0.48823,1.38832 -0.73975,2.10352 C -388.27103,148.1614 -391.27891,161.46214 -394,175 c 0.64437,-0.0314 1.28874,-0.0628 1.95264,-0.0952 22.54435,-0.95668 22.54435,-0.95668 29.23877,4.25146 6.64907,6.77832 10.04756,12.7628 10.07602,22.49628 0.005,0.64327 0.009,1.28654 0.0137,1.94931 0.0126,2.14158 0.011,4.28291 0.009,6.42453 0.006,1.54129 0.0128,3.08258 0.0204,4.62387 0.0176,4.17788 0.0224,8.35569 0.0236,12.5336 10e-4,2.61361 0.006,5.22719 0.011,7.8408 0.0185,9.12786 0.0267,18.25568 0.0251,27.38356 -10e-4,8.49219 0.0199,16.98413 0.0515,25.47625 0.0262,7.30384 0.0369,14.6076 0.0356,21.91148 -5e-4,4.35649 0.005,8.71276 0.0264,13.06921 0.0194,4.10084 0.0195,8.20125 0.005,12.30212 -0.002,1.49871 0.003,2.99745 0.0147,4.49612 0.0828,10.92622 -1.01581,20.53207 -8.72249,28.86787 -6.98404,5.75877 -15.22525,6.69157 -23.90625,6.78125 -0.91266,0.029 -1.82531,0.058 -2.76562,0.0879 -7.53492,0.0698 -13.21414,-1.64489 -19.37891,-6.00586 -0.50918,-0.52207 -1.01836,-1.04414 -1.54297,-1.58203 -0.52207,-0.50918 -1.04414,-1.01836 -1.58203,-1.54297 -6.40805,-9.05858 -6.16098,-18.06767 -6.07544,-28.74438 -5.1e-4,-1.76845 -0.003,-3.5369 -0.007,-5.30535 -0.005,-4.78566 0.014,-9.57094 0.0381,-14.35654 0.0214,-5.02666 0.0207,-10.05333 0.0227,-15.08004 0.006,-8.44742 0.0277,-16.8947 0.0591,-25.34206 0.0402,-10.80128 0.0577,-21.60246 0.0673,-32.40381 0.008,-9.32869 0.0256,-18.65737 0.045,-27.98605 0.004,-1.99143 0.008,-3.98286 0.0112,-5.97429 0.01,-5.68898 0.0245,-11.37791 0.0468,-17.06686 0.006,-1.71389 0.0105,-3.42777 0.0132,-5.14166 0.0237,-13.72506 0.16374,-27.54693 2.42304,-41.11849 0.12858,-0.78391 0.25717,-1.56782 0.38965,-2.37549 C -409.2618,121.52625 -401.5566,98.735244 -391,77 c 0.34756,-0.721069 0.69513,-1.442139 1.05322,-2.185059 C -374.53005,43.227839 -351.3702,14.942034 -324,-7 c 1.13695,-0.9551953 1.13695,-0.9551953 2.29688,-1.9296875 C -289.16283,-35.971792 -249.21655,-52.133126 -208,-60 c 0.89912,-0.179341 1.79824,-0.358682 2.72461,-0.543457 C -132.31333,-74.661981 -54.957512,-47.815291 0,0 Z"
           fill="#112131"
           transform="translate(666,231)"
           id="path3-0"
           style="fill:#950f16;fill-opacity:1" />
        <path
           d="m 0,0 c 0.70705078,-0.02449219 1.4141016,-0.04898437 2.1425781,-0.07421875 3.2950133,-0.01856346 5.3316632,0.09834604 7.9949329,2.11550995 2.256235,2.9252373 2.304653,4.465985 2.314653,8.1339868 0.01272,1.184668 0.02545,2.369337 0.03856,3.589905 -0.0065,1.296217 -0.01305,2.592435 -0.01978,3.927932 0.0071,1.381632 0.0158,2.763256 0.02611,4.144867 0.02251,3.750106 0.01955,7.49979 0.01068,11.249938 -0.0051,3.131272 0.0022,6.262465 0.0095,9.393729 0.017,7.387454 0.01343,14.774701 -0.0033,22.16215 -0.01692,7.619847 -0.0011,15.239121 0.03122,22.858906 0.0267,6.543672 0.03397,13.087165 0.02548,19.630885 -0.0049,3.9076 -0.0027,7.81485 0.01779,11.7224 0.01836,3.67497 0.0124,7.34911 -0.0122,11.02404 -0.0074,1.98976 0.0098,3.97957 0.02782,5.96926 -0.103616,9.72371 -0.103616,9.72371 -3.0196987,12.82468 -4.9430219,3.17671 -10.00372918,2.5203 -15.6468353,1.70103 -9.16825,-3.03134 -14.690998,-8.53589 -19,-17 -0.91206,-2.92767 -1.132676,-5.57521 -1.1539,-8.63445 -0.0129,-1.38969 -0.0129,-1.38969 -0.02606,-2.80746 -0.0043,-1.00941 -0.0085,-2.01882 -0.01291,-3.05882 -0.01227,-1.60316 -0.01227,-1.60316 -0.02478,-3.23871 -0.02482,-3.53867 -0.04136,-7.0773 -0.05579,-10.61603 -0.0053,-1.20971 -0.01065,-2.41942 -0.01613,-3.6658 -0.02672,-6.403463 -0.0461,-12.806912 -0.06053,-19.210419 -0.01334,-5.295098 -0.04119,-10.58981 -0.08203,-15.884766 -0.04934,-6.39779 -0.07409,-12.795229 -0.0812,-19.193201 -0.0067,-2.434801 -0.02192,-4.869595 -0.04589,-7.304287 -0.03169,-3.413196 -0.03168,-6.825047 -0.02428,-10.238352 -0.0164,-0.99929 -0.03281,-1.998581 -0.04971,-3.028152 0.07015,-7.932785 2.453623,-13.51242 7.6957,-19.4593968 0.639375,-0.5272265 1.27875,-1.0544531 1.9375,-1.5976562 0.639375,-0.5452734 1.27875,-1.0905469 1.9375,-1.6523437 C -10.270512,0.46608413 -5.7749001,0.01058643 0,0 Z"
           fill="#132332"
           transform="translate(226.0625,430.625)"
           id="path4"
           style="fill:#950f16;fill-opacity:1" />
        <path
           d="m 0,0 c 8.3350918,1.9024461 13.123035,7.4815791 17.569977,14.465729 1.955672,4.8334 1.849462,9.111544 1.818207,14.277923 0.0053,1.070672 0.01051,2.141345 0.01593,3.244461 0.01318,3.532758 0.0045,7.065063 -0.0057,10.597824 0.002,2.460908 0.0049,4.921816 0.0087,7.382721 0.0044,5.156339 -0.002,10.312522 -0.01602,15.468842 -0.01707,6.599631 -0.0073,13.198896 0.01072,19.798513 0.01086,5.082161 0.0074,10.164235 -3.84e-4,15.246397 -0.002,2.4328 4.41e-4,4.8656 0.0074,7.29839 0.0076,3.4058 -0.004,6.81101 -0.0207,10.21676 0.0061,0.99974 0.01215,1.99949 0.0184,3.02952 -0.08135,9.00379 -2.238237,15.51564 -8.43393,22.2112 -5.3564265,4.78366 -11.75216757,6.90669 -18.847656,7.13672 -1.5430078,0.0735 -1.5430078,0.0735 -3.117188,0.14844 -3.123767,-0.54362 -4.783605,-1.28449 -6.958356,-3.60487 -2.494501,-4.56033 -1.726179,-10.31656 -1.68056,-15.36608 -0.0051,-1.3834 -0.01242,-2.7668 -0.02168,-4.15018 -0.0185,-3.7501 -0.0056,-7.49949 0.01409,-11.24956 0.0164,-3.92592 0.0076,-7.85179 0.0025,-11.77773 -0.0045,-6.591515 0.01134,-13.182742 0.03929,-19.77419 0.03207,-7.620403 0.03203,-15.240294 0.01478,-22.860733 -0.01586,-7.332604 -0.0091,-14.665021 0.0079,-21.997618 0.0069,-3.119971 0.0058,-6.239791 -0.0015,-9.35976 -0.0077,-3.673278 0.0045,-7.345973 0.03185,-11.019152 0.01017,-1.991104 7e-4,-3.982279 -0.0093,-5.973384 0.01909,-1.777003 0.01909,-1.777003 0.03856,-3.5899053 0.0028,-1.0296012 0.0056,-2.0592024 0.0085,-3.1200037 C -17.719233,-2.7820855 -7.3437575,-0.7305707 0,0 Z"
           fill="#132232"
           transform="translate(781,431)"
           id="path5-6"
           style="fill:#950f16;fill-opacity:1" />
        <path
           d="M 0,0 C 0.639375,-0.01289063 1.27875,-0.02578125 1.9375,-0.0390625 5.3546529,1.0611572 6.7880519,2.8164018 9,5.625 c 0.736811,3.211675 0.6750794,6.357258 0.6349182,9.640991 0.0078,0.976714 0.0156,1.953427 0.023636,2.959738 0.01996,3.276051 0.00414,6.550945 -0.011582,9.827005 0.00677,2.347282 0.015676,4.694558 0.02655,7.041825 0.022822,6.378067 0.013945,12.755731 -0.0019,19.133806 -0.011363,5.993698 -0.0027,11.987358 0.00464,17.981055 0.014257,12.594512 -0.00213,25.188841 -0.029002,37.78332 -0.022339,10.80606 -0.018459,21.61185 0.00459,32.4179 0.026759,12.54951 0.037292,25.09886 0.021939,37.64839 -0.00791,6.64283 -0.00882,13.2855 0.00768,19.92832 0.014425,6.24473 0.00446,12.48896 -0.024471,18.73363 -0.00662,2.29418 -0.0047,4.5884 0.00631,6.88256 0.013626,3.1274 -0.00343,6.25317 -0.0284,9.38047 0.011154,0.91196 0.022307,1.82392 0.033799,2.76352 -0.068683,4.42166 -0.2276112,6.30043 -2.9896494,9.91363 C 3.2963057,250.14083 1.1891165,250.69981 -3,250.625 c -2.8018945,-1.76641 -4.5152491,-3.0305 -6,-6 -0.107151,-3.10055 -0.1522236,-6.17908 -0.1539002,-9.28023 -0.00438,-0.97415 -0.00876,-1.9483 -0.013279,-2.95197 -0.013422,-3.28499 -0.019575,-6.56995 -0.025691,-9.85496 -0.0079,-2.34683 -0.016167,-4.69366 -0.02478,-7.0405 -0.023984,-7.05745 -0.039152,-14.11491 -0.05206,-21.17239 -0.00619,-3.32217 -0.013106,-6.64434 -0.019858,-9.96651 -0.021831,-11.04127 -0.040522,-22.08255 -0.051622,-33.12383 -0.00293,-2.86588 -0.00589,-5.73177 -0.00891,-8.59765 -7.46e-4,-0.71231 -0.00149,-1.42463 -0.00226,-2.15853 -0.012657,-11.54255 -0.045885,-23.08495 -0.087541,-34.62743 -0.042402,-11.846008 -0.065986,-23.691938 -0.071213,-35.538022 -0.00342,-6.652971 -0.015759,-13.305729 -0.048103,-19.958633 -0.029983,-6.256937 -0.036427,-12.513454 -0.024616,-18.770448 2.216e-4,-2.299037 -0.00815,-4.598093 -0.025654,-6.897063 -0.022567,-3.134063 -0.014454,-6.266586 0.00148,-9.400655 -0.013882,-0.914009 -0.027764,-1.828017 -0.042067,-2.769722 0.056526,-4.4980371 0.1909379,-6.307833 3.0591625,-9.9537768 C -4.0880366,0.69084057 -3.0600461,-0.06169448 0,0 Z"
           fill="#0f1e2e"
           transform="translate(500,380.375)"
           id="path6-2"
           style="fill:#950f16;fill-opacity:1" />
        <path
           d="m 0,0 c 5.5789474,3.1578947 5.5789474,3.1578947 7,6 0.1007366,2.1171251 0.1351272,4.237496 0.1404419,6.35701 0.00297,0.659716 0.00594,1.319433 0.009,1.999141 0.0087,2.220895 0.010197,4.441737 0.011687,6.662648 0.00463,1.588222 0.00965,3.176444 0.015045,4.764664 0.013138,4.322393 0.019572,8.64477 0.024011,12.96718 0.00293,2.699303 0.00703,5.398603 0.011504,8.097904 0.013679,8.442065 0.023344,16.88412 0.027202,25.326196 0.00448,9.751368 0.022029,19.502596 0.051001,29.253917 0.021605,7.53297 0.031703,15.0659 0.03304,22.5989 0.00105,4.50111 0.00698,9.0021 0.02482,13.50318 0.01646,4.2345 0.018646,8.46876 0.00986,12.70327 -7.715e-4,1.55403 0.00359,3.10807 0.013458,4.66206 0.01269,2.12227 0.00686,4.24371 -0.00358,6.36597 0.00147,1.18744 0.00293,2.37487 0.00444,3.59829 C 6.957315,168.36032 6.1122958,170.20327 4,173 c -3.7373856,2.49159 -5.5733158,2.45793 -10,2 -3.3893956,-2.13679 -4.725826,-3.17748 -6,-7 -0.10036,-2.15731 -0.139385,-4.31763 -0.147171,-6.47726 -0.0037,-0.66058 -0.0074,-1.32115 -0.01114,-2.00173 -0.01103,-2.21779 -0.01488,-4.43553 -0.01869,-6.65333 -0.0063,-1.58837 -0.01291,-3.17674 -0.01991,-4.76511 -0.0174,-4.3182 -0.02796,-8.63638 -0.0362,-12.95461 -0.0052,-2.69713 -0.01123,-5.39426 -0.01751,-8.09138 -0.01905,-8.43672 -0.03328,-16.87343 -0.04161,-25.31017 -0.0098,-9.742911 -0.03612,-19.485594 -0.0765,-29.228424 -0.03014,-7.52874 -0.04497,-15.057416 -0.04828,-22.586216 -0.0024,-4.497794 -0.01134,-8.995346 -0.03646,-13.493076 -0.02324,-4.230452 -0.02753,-8.460502 -0.01724,-12.691002 4.96e-4,-1.552421 -0.0059,-3.104862 -0.01956,-4.657223 -0.01767,-2.12023 -0.01064,-4.239007 0.0025,-6.359237 -0.0024,-1.186139 -0.0048,-2.372277 -0.0072,-3.5943587 C -11.898804,5.3586888 -10.647973,3.7077495 -8,1 -5.1339187,-0.43304064 -3.1869922,-0.30644155 0,0 Z"
           fill="#122131"
           transform="translate(440,418)"
           id="path7-6"
           style="fill:#950f16;fill-opacity:1" />
        <path
           d="m 0,0 c 4.1000787,0.38679988 6.1139877,1.7834438 9.3125,4.3125 1.413644,2.8272876 1.13251,5.1939213 1.140442,8.35701 0.003,0.659716 0.0059,1.319433 0.009,1.999141 0.0087,2.220895 0.0102,4.441737 0.01169,6.662648 0.0046,1.588222 0.0097,3.176444 0.01505,4.764664 0.01314,4.322393 0.01957,8.64477 0.02401,12.96718 0.0029,2.699303 0.007,5.398603 0.0115,8.097904 0.01368,8.442065 0.02334,16.88412 0.0272,25.326196 0.0045,9.751368 0.02203,19.502596 0.051,29.253917 0.02161,7.53297 0.0317,15.0659 0.03304,22.5989 10e-4,4.50111 0.007,9.0021 0.02482,13.50318 0.01646,4.2345 0.01865,8.46876 0.0099,12.70327 -7.71e-4,1.55403 0.0036,3.10807 0.01346,4.66206 0.01269,2.12227 0.0069,4.24371 -0.0036,6.36597 0.0015,1.18744 0.0029,2.37487 0.0044,3.59829 -0.414622,3.49999 -1.2596412,5.34294 -3.371937,8.13967 -3.7373856,2.49159 -5.5733158,2.45793 -10,2 -3.3893956,-2.13679 -4.7258256,-3.17748 -6,-7 -0.1024461,-2.15727 -0.1437479,-4.31759 -0.1539002,-6.47726 -0.00438,-0.66058 -0.00876,-1.32115 -0.013279,-2.00173 -0.013376,-2.21778 -0.019564,-4.43552 -0.025691,-6.65333 -0.0079,-1.58837 -0.016171,-3.17674 -0.02478,-4.76511 -0.026205,-5.21907 -0.041524,-10.43814 -0.055786,-15.65726 -0.00536,-1.79624 -0.010737,-3.59249 -0.016132,-5.38873 -0.021624,-7.47014 -0.040362,-14.94028 -0.051622,-22.41044 -0.016249,-10.709554 -0.049456,-21.418741 -0.1064008,-32.128154 -0.03867,-7.528738 -0.058228,-15.05738 -0.06352,-22.586216 -0.00366,-4.497856 -0.015712,-8.995327 -0.048103,-13.493076 -0.03003,-4.230513 -0.036411,-8.460405 -0.024616,-12.691002 2.212e-4,-1.552431 -0.00812,-3.104891 -0.025654,-4.657223 -0.022651,-2.120496 -0.01442,-4.23873 0.00148,-6.359237 C -9.298839,11.857593 -9.302149,10.671455 -9.30556,9.4493733 -8.5091572,5.407307 -6.7776504,3.9341987 -3.6875,1.3125 c 1,-1 1,-1 3.6875,-1.3125 z"
           fill="#132232"
           transform="translate(561.6875,417.6875)"
           id="path8-1"
           style="fill:#950f16;fill-opacity:1" />
        <path
           d="m 0,0 c 3.7990713,1.7268506 5.4583771,3.1612224 7,7 0.2572689,2.2089596 0.2572689,2.2089596 0.2674255,4.654633 0.00853,0.930798 0.01706,1.861597 0.025848,2.820602 -9.064e-4,1.014125 -0.00181,2.028249 -0.00275,3.073105 0.010076,1.610389 0.010076,1.610389 0.020355,3.253311 0.019016,3.553142 0.022906,7.106096 0.025055,10.659286 0.00643,2.468558 0.013153,4.937115 0.020172,7.405671 0.011982,5.176643 0.01568,10.35322 0.014496,15.529876 -2.033e-4,6.633566 0.027103,13.266704 0.061544,19.900168 0.022236,5.099232 0.026294,10.19836 0.025236,15.297636 0.00236,2.44563 0.011211,4.891263 0.026665,7.336845 0.019593,3.420887 0.013848,6.840837 0.00179,10.261737 0.011239,1.01008 0.022478,2.02015 0.034058,3.06084 C 7.4674242,116.11115 6.9895489,119.58522 3,124 c -3.67242465,1.22414 -6.1422537,1.46559 -10,1 -3.021657,-2.63291 -4.683004,-4.38016 -5.458467,-8.34274 -0.186045,-2.88849 -0.205582,-5.73775 -0.172637,-8.63211 -0.0072,-1.095 -0.01431,-2.19 -0.02168,-3.31818 -0.01688,-3.61239 0.0025,-7.223529 0.02388,-10.835876 -8.29e-4,-2.512936 -0.0033,-5.025871 -0.0073,-7.538803 -0.0029,-5.263162 0.01131,-10.526003 0.03929,-15.789078 0.03207,-6.078223 0.03203,-12.155804 0.01478,-18.234072 -0.01588,-5.857355 -0.009,-11.714474 0.0079,-17.571819 0.0052,-2.488303 0.0047,-4.976624 -0.0015,-7.464924 -0.0054,-3.476052 0.01491,-6.951012 0.0423,-10.426939 -0.0065,-1.029231 -0.01305,-2.058462 -0.01978,-3.118881 0.05939,-4.4297385 0.109379,-7.0020081 2.461563,-10.8419192 C -6.6920134,-0.17854191 -4.5363473,-0.35579195 0,0 Z"
           fill="#142333"
           transform="translate(534,443)"
           id="path9-8"
           style="fill:#950f16;fill-opacity:1" />
        <path
           d="m 0,0 c 2.6999066,1.7999377 4.5418865,3.083773 6,6 0.1005773,1.496353 0.1394022,2.9970712 0.147171,4.49678 0.00716,0.946323 0.014311,1.892646 0.021683,2.867646 0.00403,1.562381 0.00403,1.562381 0.00815,3.156326 0.00657,1.094414 0.013142,2.188828 0.019913,3.316406 0.019764,3.633709 0.031402,7.267375 0.041367,10.901123 0.00408,1.238605 0.00815,2.47721 0.01235,3.753348 0.018719,5.878101 0.033283,11.756189 0.041612,17.634314 0.00977,6.783987 0.036089,13.567649 0.076501,20.351522 0.033804,5.876493 0.045645,11.752877 0.049703,17.629459 0.00488,2.499495 0.016533,4.998986 0.035038,7.498417 0.024272,3.495509 0.023448,6.990159 0.016485,10.485719 0.01281,1.03552 0.02562,2.07103 0.038818,3.13793 -0.032359,4.44937 -0.056262,7.02978 -2.4131623,10.89032 C 1.3758443,124.56014 0.37720841,124.9573 -3.3125,125.375 -7,125 -7,125 -9.875,122.625 c -2.708898,-3.34629 -3.249983,-4.84129 -3.2789,-9.03912 -0.0086,-0.92805 -0.0172,-1.8561 -0.02606,-2.81227 -0.0043,-1.02132 -0.0085,-2.04263 -0.01291,-3.0949 -0.0082,-1.0733 -0.01635,-2.1466 -0.02478,-3.25243 -0.02488,-3.56396 -0.04138,-7.127884 -0.05579,-10.691905 -0.0053,-1.215291 -0.01065,-2.430583 -0.01613,-3.682701 -0.02674,-6.43242 -0.04612,-12.864821 -0.06053,-19.297279 -0.01665,-6.649366 -0.06143,-13.298223 -0.112371,-19.947423 -0.03363,-5.1078 -0.0452,-10.215482 -0.05086,-15.323383 -0.0067,-2.451236 -0.02197,-4.902463 -0.04589,-7.353592 -0.03156,-3.430789 -0.0317,-6.860234 -0.02428,-10.29113 -0.0164,-1.013218 -0.03281,-2.026436 -0.04971,-3.070358 0.04027,-4.546876 0.121128,-7.7575736 3.044678,-11.3834382 C -6.9176089,0.00268577 -4.9747385,-0.48771946 0,0 Z"
           fill="#142333"
           transform="translate(472,443)"
           id="path10-7"
           style="fill:#950f16;fill-opacity:1" />
        <path
           d="m 0,0 c 2.7532902,1.795624 4.5262746,3.0525492 6,6 0.1186452,2.3837857 0.1782656,4.739325 0.1928711,7.124268 0.00818,0.733532 0.016355,1.467063 0.02478,2.222824 0.024854,2.432471 0.04137,4.864884 0.055786,7.297439 0.00532,0.8304 0.010647,1.6608 0.016132,2.516363 0.026732,4.395334 0.046106,8.79064 0.060528,13.18603 0.016648,4.539845 0.061426,9.078964 0.1123714,13.618535 0.033657,3.490741 0.045204,6.98131 0.050856,10.472199 0.00672,1.673367 0.02195,3.346723 0.045891,5.019932 0.031623,2.343921 0.031694,4.68588 0.024281,7.029959 0.016405,0.689537 0.032811,1.379075 0.049713,2.089508 C 6.5834935,80.422726 6.06919,81.91579 3.592438,84.930222 0.35046551,87.518583 -1.0933889,87.685042 -5.0664059,87.429687 -8.1422066,86.746176 -9.8725666,85.256369 -12,83 c -1.163839,-3.491518 -1.148484,-6.261384 -1.177002,-9.946533 -0.0066,-0.702811 -0.01314,-1.405622 -0.01991,-2.12973 -0.0197,-2.324841 -0.03139,-4.649617 -0.04137,-6.974518 -0.0041,-0.795137 -0.0082,-1.590274 -0.01235,-2.409506 -0.02085,-4.208466 -0.03516,-8.4169 -0.04453,-12.625406 -0.01106,-4.341199 -0.04547,-8.681884 -0.08517,-13.022901 -0.02617,-3.343233 -0.03452,-6.686345 -0.03811,-10.029672 -0.0049,-1.599951 -0.01647,-3.199896 -0.03504,-4.799747 -0.02441,-2.242834 -0.02342,-4.484343 -0.01649,-6.72727 -0.0059,-1.274465 -0.01173,-2.54893 -0.01778,-3.862015 C -12.911654,6.3709896 -11.577616,4.2030125 -9,1 -5.8995107,-0.55024464 -3.4210578,-0.28992015 0,0 Z"
           fill="#142333"
           transform="translate(597,462)"
           id="path11-9"
           style="fill:#950f16;fill-opacity:1" />
        <path
           d="m 0,0 c 3.7868357,1.7212889 5.544166,3.1253706 7,7 0.2606964,3.218735 0.2606964,3.218735 0.2746582,7.075928 0.00767,1.056845 0.00767,1.056845 0.015488,2.13504 0.013877,2.324295 0.012941,4.648294 0.010635,6.972626 0.00389,1.618984 0.00822,3.237967 0.012985,4.856949 0.00746,3.391874 0.00717,6.783644 0.00191,10.175521 -0.00579,4.342324 0.011137,8.684221 0.034345,13.026473 0.014746,3.343207 0.015608,6.686311 0.01249,10.029544 5.127e-4,1.600751 0.00574,3.201508 0.015812,4.802227 0.012365,2.240404 0.00557,4.479979 -0.00601,6.72037 6.295e-4,1.273669 0.00126,2.547338 0.00191,3.859604 C 6.9689461,80.277636 6.2008097,82.124179 4,85 0.83181244,87.112125 -1.1321925,87.331565 -4.8671875,87.558594 -8.3096055,86.657008 -9.7730911,84.713262 -12,82 c -0.491463,-2.701359 -0.67707,-4.772532 -0.631104,-7.464844 -0.0072,-0.73397 -0.01431,-1.46794 -0.02168,-2.224151 -0.01686,-2.416809 0.0025,-4.831755 0.02388,-7.248505 -8.29e-4,-1.684816 -0.0033,-3.369632 -0.0073,-5.054443 -0.0029,-3.527348 0.01182,-7.05406 0.03929,-10.581299 0.03408,-4.516245 0.02806,-9.031354 0.0093,-13.547653 -0.01058,-3.477956 -0.0016,-6.955648 0.01338,-10.433579 0.0052,-1.664929 0.0047,-3.329886 -0.0015,-4.994812 -0.0055,-2.329223 0.01496,-4.656831 0.0423,-6.98587 -0.0065,-0.684825 -0.01305,-1.369649 -0.01978,-2.075226 C -12.459596,6.6869589 -11.304926,4.3117003 -8,1 -5.1799867,-0.41000664 -3.1299274,-0.24548451 0,0 Z"
           fill="#132333"
           transform="translate(409,462)"
           id="path12"
           style="fill:#950f16;fill-opacity:1" />
        <path
           d="M 0,0 C 0.639375,-0.01289063 1.27875,-0.02578125 1.9375,-0.0390625 5.3201575,1.0500507 6.7924932,2.8697491 9,5.625 c 0.7259666,2.9515743 0.7018289,5.815377 0.6640625,8.84375 0.00478,0.846713 0.00957,1.693425 0.014496,2.565796 0.00339,1.785216 -0.00577,3.570494 -0.026703,5.355591 -0.026777,2.726837 -2.365e-4,5.449559 0.031738,8.176269 -0.0033,1.738291 -0.00971,3.476578 -0.019531,5.214844 0.010121,0.811586 0.020242,1.623171 0.03067,2.459351 -0.087367,4.236702 -0.3307694,5.916457 -3.0174866,9.370727 C 3.300316,50.151262 1.218162,50.700324 -3,50.625 c -2.8018945,-1.766412 -4.5152491,-3.030498 -6,-6 -0.2850987,-5.510345 -0.3137724,-11.021795 -0.3500977,-16.538818 -0.016555,-1.843879 -0.043838,-3.687693 -0.082031,-5.53125 -0.054828,-2.660576 -0.076651,-5.319648 -0.091309,-7.980713 -0.022669,-0.820997 -0.045339,-1.641994 -0.068695,-2.48787 0.016005,-4.3465326 0.1902488,-5.9568105 2.9959412,-9.4791713 C -4.0866965,0.69119231 -3.087139,-0.06224071 0,0 Z"
           fill="#10202f"
           transform="translate(625,480.375)"
           id="path13"
           style="fill:#950f16;fill-opacity:1" />
        <path
           d="M 0,0 C 0.639375,-0.01289063 1.27875,-0.02578125 1.9375,-0.0390625 5.3201575,1.0500507 6.7924932,2.8697491 9,5.625 c 0.7259666,2.9515743 0.7018289,5.815377 0.6640625,8.84375 0.00478,0.846713 0.00957,1.693425 0.014496,2.565796 0.00339,1.785216 -0.00577,3.570494 -0.026703,5.355591 -0.026777,2.726837 -2.365e-4,5.449559 0.031738,8.176269 -0.0033,1.738291 -0.00971,3.476578 -0.019531,5.214844 0.010121,0.811586 0.020242,1.623171 0.03067,2.459351 C 9.6059697,42.54501 9.3758919,44.155839 6.5874023,47.63623 4.0817801,49.562141 3.0898705,50.312296 0,50.25 -0.639375,50.26289 -1.27875,50.27578 -1.9375,50.28906 -5.3201575,49.199949 -6.7924932,47.380251 -9,44.625 c -0.7259666,-2.951574 -0.7018289,-5.815377 -0.6640625,-8.84375 -0.00478,-0.846713 -0.00957,-1.693425 -0.014496,-2.565796 -0.00339,-1.785216 0.00577,-3.570494 0.026703,-5.355591 0.026777,-2.726837 2.365e-4,-5.449559 -0.031738,-8.176269 0.0033,-1.738291 0.00971,-3.476578 0.019531,-5.214844 -0.010121,-0.811586 -0.020242,-1.623171 -0.03067,-2.459351 0.088763,-4.3044089 0.3188408,-5.9152379 3.1073304,-9.3956295 C -4.0817801,0.68785913 -3.0898705,-0.06229578 0,0 Z"
           fill="#101f2f"
           transform="translate(375,480.375)"
           id="path14"
           style="fill:#950f16;fill-opacity:1" />
        <path
           d="M 0,0 C 2.9838891,1.5901946 4.2247683,2.2539166 6,5 6.8046866,9.3698314 6.6547567,13.635007 6.5,18.0625 6.4896875,19.246504 6.479375,20.430508 6.46875,21.650391 6.289442,31.540345 6.289442,31.540345 4,35 c -3.68893116,2.459287 -6.7164142,2.693056 -11,2 -3.443127,-2.124483 -4.716175,-3.148526 -6,-7 -0.28285,-3.766001 -0.277564,-7.537056 -0.3125,-11.3125 -0.029,-1.033184 -0.05801,-2.066367 -0.08789,-3.130859 C -13.451797,9.3918384 -13.20015,5.6521143 -9,1 -5.8508852,-0.57455739 -3.4799118,-0.34799118 0,0 Z"
           fill="#142333"
           transform="translate(347,487)"
           id="path15"
           style="fill:#950f16;fill-opacity:1" />
        <path
           d="M 0,0 C 0.73476563,0.06832031 1.4695312,0.13664062 2.2265625,0.20703125 5.5493747,1.7234419 7.1107151,3.8647309 8.375,7.1875 c 0.5446443,3.868078 0.5135801,7.662781 0.4375,11.5625 0.00709,1.028027 0.01418,2.056055 0.021484,3.115234 -0.079482,9.43385 -0.079482,9.43385 -3.4589844,13.322266 -3.6678167,2.445211 -6.7345323,2.722378 -11,2 -2.4311962,-1.870151 -3.6406917,-3.281383 -4.9999996,-6 -0.351172,-4.263761 -0.370934,-8.536178 -0.4375,-12.8125 -0.06864,-1.78374 -0.06864,-1.78374 -0.138672,-3.603516 C -11.310729,6.287975 -11.310729,6.287975 -9.4208984,3.255127 -6.538614,0.66226347 -3.8255443,-0.50691841 0,0 Z"
           fill="#142333"
           transform="translate(657.625,486.8125)"
           id="path16"
           style="fill:#950f16;fill-opacity:1" />
        <path
           d="m 0,0 c 0.33,0.66 0.66,1.32 1,2 0.66,0 1.32,0 2,0 0.33,51.15 0.66,102.3 1,155 -1.32,0.33 -2.64,0.66 -4,1 C 0,105.86 0,53.72 0,0 Z"
           fill="#0c1d2d"
           transform="translate(554,429)"
           id="path18"
           style="fill:#950f16;fill-opacity:1" />
        <path
           d="m 0,0 c 0.66,0 1.32,0 2,0 0,53.46 0,106.92 0,162 -0.66,0.33 -1.32,0.66 -2,1 -1.1250125,-3.37504 -1.1073647,-5.87725 -1.0822906,-9.43498 0.00323,-0.65593 0.00646,-1.31187 0.00979,-1.98767 0.012081,-2.20187 0.031453,-4.40361 0.050777,-6.60543 0.010142,-1.57677 0.019836,-3.15355 0.0291138,-4.73033 0.0264875,-4.28485 0.0592657,-8.56963 0.0931499,-12.85443 0.0343366,-4.4763 0.0629203,-8.95264 0.0921071,-13.42898 0.0561597,-8.47852 0.11751383,-16.956988 0.18072134,-25.435452 C -0.554935,78.871115 -0.48900474,69.219466 -0.42356598,59.56781 -0.28881167,39.711825 -0.14678796,19.855899 0,0 Z"
           fill="#1d2c3b"
           transform="translate(570,424)"
           id="path22"
           style="fill:#950f16;fill-opacity:1" />
        <path
           d="m 0,0 c 0.66,0 1.32,0 2,0 0.1771261,20.957165 0.3428099,41.914392 0.4947758,62.871756 0.070825,9.7303 0.1454299,19.460543 0.228857,29.190744 0.072684,8.47829 0.1383539,16.95661 0.1955112,25.43502 0.030527,4.49155 0.064628,8.98302 0.1071202,13.47448 0.039848,4.22369 0.07035,8.44734 0.09355,12.67115 0.010206,1.55369 0.023886,3.10737 0.041222,4.661 0.023085,2.11445 0.033892,4.22861 0.04151,6.34316 0.00922,1.18542 0.018436,2.37085 0.027933,3.5922 C 3,161 3,161 1,163 c -1,-1 -1,-1 -1.12304783,-3.65306 9.2179e-4,-1.19372 0.001844,-2.38745 0.002793,-3.61734 -8.5442e-4,-0.66239 -0.001709,-1.32478 -0.002589,-2.00724 -0.001657,-2.23569 0.00387,-4.4713 0.009318,-6.70698 2.8186e-4,-1.59619 1.2416e-4,-3.19237 -4.4251e-4,-4.78856 -2.8802e-4,-4.34692 0.00561,-8.69381 0.012574,-13.04073 0.0062327,-4.53773 0.0068373,-9.07546 0.0080254,-13.6132 0.0031136,-8.59897 0.01132731,-17.197925 0.02134949,-25.796889 0.01116032,-9.787018 0.01667138,-19.574037 0.02169543,-29.361059 C -0.03985862,40.276621 -0.02225868,20.138311 0,0 Z"
           fill="#1f2c38"
           transform="translate(428,424)"
           id="path23"
           style="fill:#950f16;fill-opacity:1" />
        <path
           d="M 0,0 C 0.99,0.33 1.98,0.66 3,1 1.630165,4.1611578 1.0109362,4.9927092 -2,7 -2.99,7 -3.98,7 -5,7 -4.75,5.125 -4.75,5.125 -4,3 -1.9375,1.75 -1.9375,1.75 0,1 0,0.67 0,0.34 0,0 Z"
           fill="#1b2938"
           transform="translate(443,586)"
           id="path95"
           style="fill:#950f16;fill-opacity:1" />
        <path
           d="m 0,0 c 1.3724511,2.7449021 0.93580311,4.1206058 0,7 -1.8125,1.1875 -1.8125,1.1875 -4,2 -1.3377062,0.6578482 -2.6717167,1.323327 -4,2 0.4099219,-0.542695 0.8198438,-1.0853906 1.2421875,-1.6445312 C -6.2189844,8.6400391 -5.6801562,7.9246094 -5.125,7.1875 -4.5913281,6.4798047 -4.0576562,5.7721094 -3.5078125,5.0429687 -2.2918522,3.395437 -1.1358386,1.7037579 0,0 Z"
           fill="#25313e"
           transform="translate(308,257)"
           id="path102"
           style="fill:#950f16;fill-opacity:1" />
        <path
           d="M 0,0 C 2,3.75 2,3.75 2,6 -0.31,6 -2.62,6 -5,6 -5.33,5.34 -5.66,4.68 -6,4 -4.02,2.68 -2.04,1.36 0,0 Z"
           fill="#182736"
           transform="translate(362,209)"
           id="path107"
           style="fill:#950f16;fill-opacity:1" />
        <path
           d="M 0,0 C 0.53625,0.226875 1.0725,0.45375 1.625,0.6875 -0.14456458,2.8296045 -1.2507565,3.6481057 -3.9375,4.5 -5.1440625,4.592812 -5.1440625,4.592812 -6.375,4.6875 c -0.66,-0.66 -1.32,-1.32 -2,-2 C -2.9596154,-0.38942308 -2.9596154,-0.38942308 0,0 Z"
           fill="#1c2a38"
           transform="translate(388.375,195.3125)"
           id="path115"
           style="fill:#950f16;fill-opacity:1" />
        <path
           d="M 0,0 C 2.4375,0.75 2.4375,0.75 5,2 5.8125,4.125 5.8125,4.125 6,6 5.01,6 4.02,6 3,6 0,2.6666667 0,2.6666667 0,0 Z"
           fill="#1b2a39"
           transform="translate(690,591)"
           id="path118"
           style="fill:#950f16;fill-opacity:1" />
        <path
           d="M 0,0 C 0,3.970546 -1.3139381,5.1647124 -4,8 -6.140625,8.6484375 -6.140625,8.6484375 -8,9 -7.0427008,7.8741199 -6.084121,6.7493285 -5.125,5.625 -4.5913281,4.9985156 -4.0576562,4.3720312 -3.5078125,3.7265625 -2.3856799,2.4416335 -1.2062802,1.2062802 0,0 Z"
           fill="#232f3b"
           transform="translate(323,241)"
           id="path120"
           style="fill:#950f16;fill-opacity:1" />
        <path
           d="M 0,0 C 0,0.66 0,1.32 0,2 -3.7818788,3.8369126 -5.9456831,4.1583763 -10,3 -6.4160085,0.61067235 -4.26805,0 0,0 Z"
           fill="#2f3b48"
           transform="translate(562,791)"
           id="path122"
           style="fill:#950f16;fill-opacity:1" />
        <path
           d="M 0,0 C 2,3 2,3 1.625,5.1875 1.41875,5.785625 1.2125,6.38375 1,7 0.01,7 -0.98,7 -2,7 -2.33,6.34 -2.66,5.68 -3,5 c 0.66,0 1.32,0 2,0 0.33,-1.65 0.66,-3.3 1,-5 z"
           fill="#192738"
           transform="translate(413,539)"
           id="path123"
           style="fill:#950f16;fill-opacity:1" />
        <path
           d="M 0,0 C -0.66,1.98 -1.32,3.96 -2,6 -3.32,5.67 -4.64,5.34 -6,5 -3.7419355,0 -3.7419355,0 0,0 Z"
           fill="#1f2c3b"
           transform="translate(623,481)"
           id="path124"
           style="fill:#950f16;fill-opacity:1" />
        <path
           d="M 0,0 C 0.66,0.33 1.32,0.66 2,1 0.35,2.98 -1.3,4.96 -3,7 -3.99,6.34 -4.98,5.68 -6,5 -4.02,3.35 -2.04,1.7 0,0 Z"
           fill="#1e2b38"
           transform="translate(333,232)"
           id="path125"
           style="fill:#950f16;fill-opacity:1" />
        <path
           d="M 0,0 C 1.65,0.33 3.3,0.66 5,1 4.67,1.99 4.34,2.98 4,4 1.03,3.505 1.03,3.505 -2,3 -1.34,2.67 -0.68,2.34 0,2 0,1.34 0,0.68 0,0 Z"
           fill="#202e3d"
           transform="translate(571,220)"
           id="path129"
           style="fill:#950f16;fill-opacity:1" />
        <path
           d="M 0,0 C 0.66,0 1.32,0 2,0 1.67,2.64 1.34,5.28 1,8 0.01,7.67 -0.98,7.34 -2,7 -1.34,4.69 -0.68,2.38 0,0 Z"
           fill="#24323e"
           transform="translate(716,649)"
           id="path132"
           style="fill:#950f16;fill-opacity:1" />
      </g>
    </g>
  </g>
</svg>
